<svg width="10" height="18" viewBox="0 0 10 18" fill="none" xmlns="http://www.w3.org/2000/svg">
<path d="M9.11615 0.606903C9.25944 0.622844 9.3889 0.638779 9.5 0.653289V2.49306H8.52608C7.6971 2.49306 7.06962 2.74469 6.65667 3.20514C6.25319 3.65503 6.12096 4.23084 6.12096 4.75312V6.867V7.367H6.62096H9.27754L8.91804 9.62453L6.62086 9.625L6.12096 9.6251V10.125V17.5H3.46826V10.125V9.625H2.96826H0.5V7.36756H2.96826H3.46826V6.86756V4.38469C3.46826 3.07763 3.86944 2.1226 4.52184 1.49302C5.17707 0.860711 6.14451 0.5 7.38359 0.5C7.99746 0.5 8.63142 0.552975 9.11615 0.606903Z" fill="#3197D6" stroke="#3197D6"/>
</svg>
