<svg width="16" height="16" viewBox="0 0 16 16" fill="none" xmlns="http://www.w3.org/2000/svg">
<path d="M4.64 0.5H11.36C13.6439 0.5 15.5 2.35614 15.5 4.64V11.36C15.5 12.458 15.0638 13.511 14.2874 14.2874C13.511 15.0638 12.458 15.5 11.36 15.5H4.64C2.35614 15.5 0.5 13.6439 0.5 11.36V4.64C0.5 3.542 0.936177 2.48898 1.71258 1.71258C2.48898 0.936177 3.542 0.5 4.64 0.5ZM4.48 1.1C3.58357 1.1 2.72385 1.45611 2.08998 2.08998C1.45611 2.72385 1.1 3.58357 1.1 4.48V11.52C1.1 13.3881 2.61186 14.9 4.48 14.9H11.52C12.4164 14.9 13.2761 14.5439 13.91 13.91C14.5439 13.2761 14.9 12.4164 14.9 11.52V4.48C14.9 2.61186 13.3881 1.1 11.52 1.1H4.48ZM12.2 3.3C12.3326 3.3 12.4598 3.35268 12.5536 3.44645C12.6473 3.54021 12.7 3.66739 12.7 3.8C12.7 3.93261 12.6473 4.05979 12.5536 4.15355C12.4598 4.24732 12.3326 4.3 12.2 4.3C12.0674 4.3 11.9402 4.24732 11.8464 4.15355C11.7527 4.05979 11.7 3.93261 11.7 3.8C11.7 3.66739 11.7527 3.54021 11.8464 3.44645C11.9402 3.35268 12.0674 3.3 12.2 3.3ZM8 4.5C8.92826 4.5 9.8185 4.86875 10.4749 5.52513C11.1313 6.1815 11.5 7.07174 11.5 8C11.5 8.92826 11.1313 9.8185 10.4749 10.4749C9.8185 11.1313 8.92826 11.5 8 11.5C7.07174 11.5 6.1815 11.1313 5.52513 10.4749C4.86875 9.8185 4.5 8.92826 4.5 8C4.5 7.07174 4.86875 6.1815 5.52513 5.52513C6.1815 4.86875 7.07174 4.5 8 4.5ZM8 5.1C7.23087 5.1 6.49325 5.40553 5.94939 5.94939C5.40553 6.49325 5.1 7.23087 5.1 8C5.1 8.76913 5.40553 9.50675 5.94939 10.0506C6.49325 10.5945 7.23087 10.9 8 10.9C8.76913 10.9 9.50675 10.5945 10.0506 10.0506C10.5945 9.50675 10.9 8.76913 10.9 8C10.9 7.23087 10.5945 6.49325 10.0506 5.94939C9.50675 5.40553 8.76913 5.1 8 5.1Z" fill="#2E465B" stroke="white"/>
</svg>
