<svg width="18" height="15" viewBox="0 0 18 15" fill="none" xmlns="http://www.w3.org/2000/svg">
<path d="M3.54388 10.0302C3.23975 9.80367 2.98183 9.52444 2.78106 9.20791C3.09746 9.19797 3.41264 9.15082 3.72001 9.0667L3.6856 8.09405C2.51503 7.86113 1.58026 6.95849 1.29453 5.80114C1.6231 5.89438 1.97276 5.9491 2.33892 5.9491H4.03315L2.6104 5.02922C1.78002 4.49234 1.23773 3.54362 1.23773 2.46467C1.23773 2.15824 1.28255 1.86092 1.36609 1.58074C3.20203 3.51791 5.76387 4.77345 8.60949 4.91733L9.2676 4.9506L9.12246 4.30784C9.07149 4.08213 9.04252 3.84242 9.04252 3.59641C9.04252 1.8842 10.4298 0.5 12.1222 0.5C13.0407 0.5 13.837 0.862141 14.403 1.47837L14.5947 1.68704L14.8722 1.62982C15.1835 1.56564 15.4896 1.48402 15.7887 1.38483C15.6164 1.55353 15.4246 1.70202 15.2175 1.82677L15.5389 2.75105C15.704 2.72993 15.8681 2.70383 16.0308 2.67273C15.8471 2.83961 15.6544 2.99547 15.4531 3.13924L15.23 3.2986L15.2444 3.57239C15.252 3.71648 15.2521 3.85447 15.2521 4.01557C15.2521 8.5535 11.7889 13.7515 5.51617 13.7515C4.28366 13.7515 3.1035 13.5206 2.01685 13.1003C3.33207 12.9042 4.58056 12.3671 5.6337 11.5333L6.72824 10.6669L5.33247 10.6414C4.68705 10.6296 4.06154 10.4159 3.54388 10.0302Z" fill="white" stroke="white"/>
</svg>
