<svg width="18" height="14" viewBox="0 0 18 14" fill="none" xmlns="http://www.w3.org/2000/svg">
<path d="M17.152 2.89554L17.1524 2.89695C17.3268 3.53657 17.4165 4.56379 17.4598 5.46846C17.481 5.91303 17.4906 6.3151 17.4948 6.60607C17.4969 6.75143 17.4977 6.86878 17.4979 6.94948L17.498 7.0419L17.498 7.06543L17.4979 7.07118L17.4979 7.0725L17.4979 7.07276L17.4979 7.07534V7.07564L17.4979 7.07697L17.4979 7.0827L17.4978 7.10616L17.4971 7.19819C17.4963 7.27854 17.4948 7.39534 17.4918 7.54006C17.4859 7.8297 17.4742 8.23004 17.4511 8.6729C17.4042 9.57228 17.3126 10.5969 17.143 11.2393C17.0627 11.5313 16.9077 11.7973 16.6933 12.0112C16.479 12.2251 16.2126 12.3795 15.9205 12.4592C15.6217 12.537 15.0554 12.6031 14.3329 12.6541C13.6223 12.7042 12.8005 12.7375 12.0177 12.7595C11.2357 12.7814 10.4965 12.792 9.95269 12.7972C9.68085 12.7997 9.45803 12.8009 9.3033 12.8014L9.12472 12.8019L9.07824 12.8019L9.06649 12.8019L9.06358 12.8019H9.06288L9.06272 12.8019L9.06213 13.3019L9.06266 12.8019H9.06251L9.06181 12.8019L9.05892 12.8019L9.04721 12.8018L9.00087 12.8017L8.8228 12.8009C8.6685 12.8 8.44626 12.7982 8.17507 12.7949C7.63249 12.7884 6.89495 12.7757 6.1141 12.751C5.33243 12.7264 4.51143 12.6899 3.80069 12.6362C3.07612 12.5814 2.5079 12.5113 2.20704 12.4295L2.20588 12.4292C1.61316 12.2696 1.14532 11.8007 0.986025 11.2084C0.818254 10.5736 0.728868 9.54865 0.683951 8.64608C0.661859 8.20214 0.651014 7.80032 0.645701 7.50944C0.643047 7.36411 0.641778 7.24676 0.641173 7.16601L0.640673 7.07351L0.640627 7.04992L0.640625 7.04415L0.640626 7.04282L0.640626 7.04257L0.640626 7.04254V7.04253V7.04251L0.640626 7.04226L0.640629 7.04093L0.640645 7.03519L0.640749 7.01173L0.641475 6.91965C0.642276 6.83928 0.643829 6.72242 0.646834 6.57765C0.652848 6.2879 0.664656 5.8874 0.687792 5.44434C0.734749 4.54514 0.826283 3.52054 0.995326 2.87735C1.07729 2.58379 1.23309 2.31611 1.4479 2.09984C1.66221 1.88408 1.92809 1.7267 2.22028 1.6426C2.51997 1.56492 3.08498 1.49896 3.80525 1.448C4.51579 1.39773 5.33759 1.36438 6.12033 1.34233C6.90229 1.3203 7.64131 1.30967 8.1851 1.30454C8.4569 1.30198 8.67969 1.3008 8.83439 1.30026L9.01294 1.29983L9.05941 1.2998L9.07116 1.29981L9.07407 1.29981L9.07477 1.29981L9.07493 1.29981L9.07552 0.799811L9.07499 1.29981L9.07515 1.29981L9.07584 1.29981L9.07874 1.29982L9.09049 1.29984L9.13695 1.29997L9.31548 1.30082C9.47017 1.30174 9.69295 1.30347 9.96474 1.30675C10.5085 1.3133 11.2475 1.32602 12.0294 1.35064C12.812 1.3753 13.6336 1.41176 14.3437 1.46551C15.0681 1.52034 15.6337 1.59045 15.9303 1.67188L15.9314 1.6722C16.224 1.75176 16.4906 1.90656 16.7048 2.12119C16.9189 2.33582 17.0731 2.6028 17.152 2.89554ZM6.78747 9.72625L6.78675 10.5911L7.53659 10.1602L12.1869 7.48793L12.9397 7.05534L12.1877 6.62135L7.54185 3.94017L6.79265 3.5078L6.79193 4.37282L6.78747 9.72625Z" fill="white" stroke="white"/>
</svg>
